<svg xmlns="http://www.w3.org/2000/svg" width="95" height="29" fill="none"><path fill="#201515" d="M0 5.364h5.783l4.382 15.09 4.67-15.09h5.567l4.705 15.09 4.346-15.09h5.783L27.8 28.607h-5.244l-4.921-15.198-4.957 15.198H7.435L0 5.364zm37.75 3.075h5.603v20.168h-5.604V8.439zm0-8.439h5.603v5.006h-5.604V0zm9.892 23.6 12.5-13.23H48.36V5.364h19.037v5.006L54.825 23.6h12.93v5.007H47.643V23.6zM82.617 29c-2.323 0-4.407-.5-6.25-1.502a10.835 10.835 0 0 1-4.275-4.22c-1.005-1.811-1.508-3.885-1.508-6.221 0-2.36.515-4.458 1.544-6.294a10.948 10.948 0 0 1 4.346-4.255c1.844-1.025 3.94-1.538 6.286-1.538 2.61 0 4.885.62 6.825 1.86 1.94 1.24 3.376 2.92 4.31 5.042.958 2.098 1.293 4.41 1.005 6.937H76.403a5.98 5.98 0 0 0 1.113 2.789 6.032 6.032 0 0 0 2.263 1.824 6.74 6.74 0 0 0 2.91.643 6.94 6.94 0 0 0 3.52-.93 5.785 5.785 0 0 0 2.406-2.61h5.89c-.814 2.623-2.262 4.697-4.346 6.222C88.1 28.25 85.586 29 82.616 29zm6.285-14.518a6.273 6.273 0 0 0-1.293-2.431 5.93 5.93 0 0 0-2.12-1.574 6.186 6.186 0 0 0-2.657-.572c-.982 0-1.892.19-2.73.572a5.93 5.93 0 0 0-2.119 1.574c-.599.69-1.042 1.513-1.329 2.467l12.248-.036z"/></svg>